# xmcd CD database file
#
# Track frame offsets:
#	150
#	47836
#	90602
#	112660
#	154978
#	191573
#	220687
#
# Disc length: 3256 seconds
#
# Revision: 0
# Processed by: cddbd v1.5.1PL0 Copyright (c) Steve Scherf et al.
# Submitted via: CDex 1.50Beta7
#
DISCID=540cb607
DTITLE=Salman Gambarov - East Or West
DYEAR=2005
DGENRE=Jazz
TTITLE0=Bird (after Azerbaijanian folk song)
TTITLE1=In The Spring (V. Mustafa-zade)
TTITLE2=My Funny Zibeyda (T. Guliyev)
TTITLE3=Magic Circle (after Azerbaijanian folk song)
TTITLE4=Attack Yalli (after Azerbaijanian folk dance melody)
TTITLE5=Rahab (S. Gambarov)
TTITLE6=East Or West (S. Gambarov and A. Tagi-zade)
EXTD=YEAR: 2005
EXTT0=
EXTT1=
EXTT2=
EXTT3=
EXTT4=
EXTT5=
EXTT6=
PLAYORDER=
